<svg xmlns="http://www.w3.org/2000/svg" xmlns:xlink="http://www.w3.org/1999/xlink" width="118" height="118" viewBox="0 0 118 118">
  <defs>
    <filter id="Elipse_12115" x="0" y="0" width="118" height="118" filterUnits="userSpaceOnUse">
      <feOffset dy="3" input="SourceAlpha"/>
      <feGaussianBlur stdDeviation="3" result="blur"/>
      <feFlood flood-opacity="0.161"/>
      <feComposite operator="in" in2="blur"/>
      <feComposite in="SourceGraphic"/>
    </filter>
  </defs>
  <g id="Grupo_1188093" data-name="Grupo 1188093" transform="translate(-799.781 -1970)">
    <g id="Grupo_1181939" data-name="Grupo 1181939" transform="translate(808.781 1976)">
      <g transform="matrix(1, 0, 0, 1, -9, -6)" filter="url(#Elipse_12115)">
        <g id="Elipse_12115-2" data-name="Elipse 12115" transform="translate(9 6)" fill="#b0bfc2" stroke="#3c6269" stroke-width="2">
          <circle cx="50" cy="50" r="50" stroke="none"/>
          <circle cx="50" cy="50" r="49" fill="none"/>
        </g>
      </g>
    </g>
    <g id="technology_16474127" transform="translate(820.235 1987.646)">
      <g id="Grupo_1188347" data-name="Grupo 1188347" transform="translate(7.5 15.869)">
        <path id="Trazado_1242870" data-name="Trazado 1242870" d="M23.6,20.533H68.9V15.5H23.6A15.143,15.143,0,0,0,8.5,30.6,14.864,14.864,0,0,0,9.884,36.89,14.864,14.864,0,0,0,8.5,43.181a15.143,15.143,0,0,0,15.1,15.1H68.9V53.247H23.6A10.1,10.1,0,0,1,13.533,43.181a4.28,4.28,0,0,1,.126-1.258A14.783,14.783,0,0,0,23.6,45.7H49.393a8.808,8.808,0,0,0,0-17.615H23.6a14.783,14.783,0,0,0-9.94,3.775c0-.377-.126-.881-.126-1.258A10.1,10.1,0,0,1,23.6,20.533Zm0,12.582H49.393a3.775,3.775,0,0,1,0,7.549H23.6a10.42,10.42,0,0,1-7.927-3.775A10.42,10.42,0,0,1,23.6,33.115Z" transform="translate(-7.242 -14.242)" fill="#76bfe9"/>
        <path id="Trazado_1242871" data-name="Trazado 1242871" d="M70.412,59.8H23.857A16.325,16.325,0,0,1,7.5,43.44a15.612,15.612,0,0,1,1.258-6.291A15.612,15.612,0,0,1,7.5,30.857,16.325,16.325,0,0,1,23.857,14.5H70.412v7.549H23.857a8.931,8.931,0,0,0-8.808,7.675,16.667,16.667,0,0,1,8.808-2.516H49.651a10.066,10.066,0,1,1,0,20.132H23.857a16.667,16.667,0,0,1-8.808-2.516A8.945,8.945,0,0,0,23.857,52.5H70.412ZM23.857,17.016A13.8,13.8,0,0,0,10.016,30.857a13.344,13.344,0,0,0,1.258,5.788l.252.5-.252.5a13.344,13.344,0,0,0-1.258,5.788A13.8,13.8,0,0,0,23.857,57.28H67.9V54.764H23.857A11.277,11.277,0,0,1,12.533,43.44a6.649,6.649,0,0,1,.126-1.51l.252-2.391,1.762,1.636A13.731,13.731,0,0,0,23.857,44.7H49.651a7.549,7.549,0,0,0,0-15.1H23.857a13.731,13.731,0,0,0-9.185,3.523L12.91,34.758l-.252-2.391a6.126,6.126,0,0,1-.126-1.51A11.277,11.277,0,0,1,23.857,19.533H67.9V17.016ZM49.651,42.181H23.857A11.084,11.084,0,0,1,15.049,37.9l-.629-.755.629-.755a11.083,11.083,0,0,1,8.808-4.278H49.651a5.033,5.033,0,0,1,0,10.066ZM17.692,37.148a8.765,8.765,0,0,0,6.165,2.516H49.651a2.516,2.516,0,0,0,0-5.033H23.857A8.765,8.765,0,0,0,17.692,37.148Z" transform="translate(-7.5 -14.5)"/>
      </g>
      <g id="Grupo_1188348" data-name="Grupo 1188348" transform="translate(37.069 9.577)">
        <path id="Trazado_1242872" data-name="Trazado 1242872" d="M31,9.5h2.516V67.379H31Z" transform="translate(-31 -9.5)"/>
      </g>
      <g id="Grupo_1188349" data-name="Grupo 1188349" transform="translate(43.108 9.326)">
        <path id="Trazado_1242873" data-name="Trazado 1242873" d="M38.694,67.682l-.252-1.258a148.966,148.966,0,0,1,0-55.866L38.694,9.3l2.516.5-.252,1.258a143.694,143.694,0,0,0,0,54.859l.252,1.258Z" transform="translate(-35.8 -9.3)"/>
      </g>
      <g id="Grupo_1188350" data-name="Grupo 1188350" transform="translate(48.519 9.2)">
        <path id="Trazado_1242874" data-name="Trazado 1242874" d="M46.643,67.834l-.5-1.132a68.784,68.784,0,0,1,0-56.369l.5-1.132,2.265,1.007-.5,1.132a67.036,67.036,0,0,0,0,54.356l.5,1.132Z" transform="translate(-40.1 -9.2)"/>
      </g>
      <g id="Grupo_1188351" data-name="Grupo 1188351" transform="translate(28.135 9.326)">
        <path id="Trazado_1242875" data-name="Trazado 1242875" d="M26.416,67.682l-2.516-.5.252-1.258a143.694,143.694,0,0,0,0-54.859L23.9,9.8l2.516-.5.252,1.258a148.966,148.966,0,0,1,0,55.866Z" transform="translate(-23.9 -9.3)"/>
      </g>
      <g id="Grupo_1188352" data-name="Grupo 1188352" transform="translate(19.202 9.2)">
        <path id="Trazado_1242876" data-name="Trazado 1242876" d="M19.065,67.834,16.8,66.827l.5-1.132a67.036,67.036,0,0,0,0-54.356l-.5-1.132L19.065,9.2l.5,1.132a68.784,68.784,0,0,1,0,56.369Z" transform="translate(-16.8 -9.2)"/>
      </g>
    </g>
  </g>
</svg>
