<svg xmlns="http://www.w3.org/2000/svg" xmlns:xlink="http://www.w3.org/1999/xlink" width="118" height="118" viewBox="0 0 118 118">
  <defs>
    <filter id="Elipse_12115" x="0" y="0" width="118" height="118" filterUnits="userSpaceOnUse">
      <feOffset dy="3" input="SourceAlpha"/>
      <feGaussianBlur stdDeviation="3" result="blur"/>
      <feFlood flood-opacity="0.161"/>
      <feComposite operator="in" in2="blur"/>
      <feComposite in="SourceGraphic"/>
    </filter>
  </defs>
  <g id="Grupo_1188094" data-name="Grupo 1188094" transform="translate(-799.781 -1970)">
    <g id="Grupo_1181939" data-name="Grupo 1181939" transform="translate(808.781 1976)">
      <g transform="matrix(1, 0, 0, 1, -9, -6)" filter="url(#Elipse_12115)">
        <g id="Elipse_12115-2" data-name="Elipse 12115" transform="translate(9 6)" fill="#b0bfc2" stroke="#3c6269" stroke-width="2">
          <circle cx="50" cy="50" r="50" stroke="none"/>
          <circle cx="50" cy="50" r="49" fill="none"/>
        </g>
      </g>
    </g>
    <g id="rope_2790174" transform="translate(826.781 1995.672)">
      <path id="Trazado_1242887" data-name="Trazado 1242887" d="M46,27H18a16,16,0,0,0,0,32H46a16,16,0,0,0,0-32Zm0,23H18a7,7,0,0,1,0-14H46a7,7,0,0,1,0,14Z" fill="#a9adcc"/>
      <path id="Trazado_1242888" data-name="Trazado 1242888" d="M46,30H18a13,13,0,0,0,0,26H46a13,13,0,0,0,0-26Zm0,20H18a7,7,0,0,1,0-14H46a7,7,0,0,1,0,14Z" fill="#d4d9f0"/>
      <path id="Trazado_1242889" data-name="Trazado 1242889" d="M46,33H18a10,10,0,0,0,0,20H46a10,10,0,0,0,0-20Zm0,17H18a7,7,0,0,1,0-14H46a7,7,0,0,1,0,14Z" fill="#a9adcc"/>
      <path id="Trazado_1242890" data-name="Trazado 1242890" d="M2,4,18,20l-.5.336a9.908,9.908,0,0,1-10.992,0L6,20,2,16" fill="#61668c"/>
      <path id="Trazado_1242891" data-name="Trazado 1242891" d="M2,16l4,4,.5.336a9.863,9.863,0,0,0,1.127.637c.124,0,.245.027.369.027a9.907,9.907,0,0,0,5.5-1.664L14,19,2,7" fill="#8389b2"/>
      <path id="Trazado_1242892" data-name="Trazado 1242892" d="M62,16,50,4l.5-.336a9.908,9.908,0,0,1,10.992,0L62,4" fill="#61668c"/>
      <path id="Trazado_1242893" data-name="Trazado 1242893" d="M62,7,58,3l-.5-.336a9.863,9.863,0,0,0-1.127-.637C56.245,2.023,56.124,2,56,2a9.907,9.907,0,0,0-5.5,1.664L50,4,62,16" fill="#8389b2"/>
      <path id="Trazado_1242894" data-name="Trazado 1242894" d="M30,20l-.5.336a9.908,9.908,0,0,1-10.992,0L18,20,2,4l.5-.336a9.908,9.908,0,0,1,10.992,0L14,4Z" fill="#61668c"/>
      <path id="Trazado_1242895" data-name="Trazado 1242895" d="M9.5,2.664a9.778,9.778,0,0,0-1.127-.637C8.245,2.023,8.124,2,8,2A9.907,9.907,0,0,0,2.5,3.664L2,4,18,20l.5.336a9.863,9.863,0,0,0,1.127.637c.124,0,.245.027.369.027a9.907,9.907,0,0,0,5.5-1.664L26,19,10,3Z" fill="#8389b2"/>
      <path id="Trazado_1242896" data-name="Trazado 1242896" d="M42,20l-.5.336a9.908,9.908,0,0,1-10.992,0L30,20,14,4l.5-.336a9.908,9.908,0,0,1,10.992,0L26,4Z" fill="#61668c"/>
      <path id="Trazado_1242897" data-name="Trazado 1242897" d="M21.5,2.664a9.863,9.863,0,0,0-1.127-.637C20.245,2.023,20.124,2,20,2a9.907,9.907,0,0,0-5.5,1.664L14,4,30,20l.5.336a9.863,9.863,0,0,0,1.127.637c.124,0,.245.027.369.027a9.907,9.907,0,0,0,5.5-1.664L38,19,22,3Z" fill="#8389b2"/>
      <path id="Trazado_1242898" data-name="Trazado 1242898" d="M54,20l-.5.336a9.908,9.908,0,0,1-10.992,0L42,20,26,4l.5-.336a9.908,9.908,0,0,1,10.992,0L38,4Z" fill="#61668c"/>
      <path id="Trazado_1242899" data-name="Trazado 1242899" d="M33.5,2.664a9.863,9.863,0,0,0-1.127-.637C32.245,2.023,32.124,2,32,2a9.907,9.907,0,0,0-5.5,1.664L26,4,42,20l.5.336a9.863,9.863,0,0,0,1.127.637c.124,0,.245.027.369.027a9.907,9.907,0,0,0,5.5-1.664L50,19,34,3Z" fill="#8389b2"/>
      <path id="Trazado_1242900" data-name="Trazado 1242900" d="M62,21.8a9.908,9.908,0,0,1-7.5-1.46L54,20,38,4l.5-.336a9.908,9.908,0,0,1,10.992,0L50,4,62,16" fill="#61668c"/>
      <path id="Trazado_1242901" data-name="Trazado 1242901" d="M45.5,2.664a9.863,9.863,0,0,0-1.127-.637C44.245,2.023,44.124,2,44,2a9.907,9.907,0,0,0-5.5,1.664L38,4,54,20l.5.336a9.863,9.863,0,0,0,1.127.637c.124,0,.245.027.369.027a9.907,9.907,0,0,0,5.5-1.664L62,19,46,3Z" fill="#8389b2"/>
      <path id="Trazado_1242902" data-name="Trazado 1242902" d="M27.5,62A1.5,1.5,0,0,1,26,60.5v-35a1.5,1.5,0,0,1,3,0v35A1.5,1.5,0,0,1,27.5,62Z" fill="#d4d9f0"/>
      <path id="Trazado_1242903" data-name="Trazado 1242903" d="M30.5,62A1.5,1.5,0,0,1,29,60.5v-35a1.5,1.5,0,0,1,3,0v35A1.5,1.5,0,0,1,30.5,62Z" fill="#a9adcc"/>
      <path id="Trazado_1242904" data-name="Trazado 1242904" d="M33.5,62A1.5,1.5,0,0,1,32,60.5v-35a1.5,1.5,0,0,1,3,0v35A1.5,1.5,0,0,1,33.5,62Z" fill="#d4d9f0"/>
      <path id="Trazado_1242905" data-name="Trazado 1242905" d="M36.5,62A1.5,1.5,0,0,1,35,60.5v-35a1.5,1.5,0,0,1,3,0v35A1.5,1.5,0,0,1,36.5,62Z" fill="#a9adcc"/>
      <path id="Trazado_1242906" data-name="Trazado 1242906" d="M58.414,11H61V9H56.414l-2-2H57V5H52.414l-.81-.81a9.046,9.046,0,0,1,9.337.306l.5.336,1.109-1.664-.5-.336A11.08,11.08,0,0,0,50,2.8a11.082,11.082,0,0,0-12,0,11.082,11.082,0,0,0-12,0,11.082,11.082,0,0,0-12,0,11.082,11.082,0,0,0-12.051.028l-.5.336a1,1,0,0,0-.152,1.539l15.1,15.1A9.046,9.046,0,0,1,7.058,19.5l-.421-.281-3.93-3.93L1.293,16.707l4,4a.953.953,0,0,0,.152.125l.5.336A10.9,10.9,0,0,0,18,21.2a10.895,10.895,0,0,0,12,0,10.895,10.895,0,0,0,12,0,10.895,10.895,0,0,0,12,0,10.893,10.893,0,0,0,8.2,1.576l-.4-1.959a8.952,8.952,0,0,1-6.74-1.312l-.421-.281L54.415,19H57V17H52.414l-2-2H53V13H48.414l-2-2H49V9H44.414l-2-2H45V5H40.414l-.829-.829a9.044,9.044,0,0,1,9.356.325l.421.281,11.93,11.93,1.414-1.414L62.414,15H63V13H60.414ZM19.059,19.5l-.421-.281L18.415,19H21V17H16.414l-2-2H17V13H12.414l-2-2H13V9H8.414l-2-2H9V5H4.414l-.829-.829a9.044,9.044,0,0,1,9.356.325l.421.281L28.414,19.829a9.044,9.044,0,0,1-9.355-.325Zm12,0-.421-.281L30.415,19H33V17H28.414l-2-2H29V13H24.414l-2-2H25V9H20.414l-2-2H21V5H16.414l-.829-.829a9.044,9.044,0,0,1,9.356.325l.421.281L40.414,19.829A9.044,9.044,0,0,1,31.059,19.5Zm12,0-.421-.281L42.415,19H45V17H40.414l-2-2H41V13H36.414l-2-2H37V9H32.414l-2-2H33V5H28.414l-.829-.829a9.044,9.044,0,0,1,9.356.325l.421.281L52.414,19.829A9.044,9.044,0,0,1,43.059,19.5Z"/>
      <path id="Trazado_1242907" data-name="Trazado 1242907" d="M46,26H39v-.5A2.5,2.5,0,0,0,36.5,23a2.471,2.471,0,0,0-1.5.513,2.449,2.449,0,0,0-3,0,2.449,2.449,0,0,0-3,0A2.471,2.471,0,0,0,27.5,23,2.5,2.5,0,0,0,25,25.5V26H18a17,17,0,0,0,0,34h7v.5A2.5,2.5,0,0,0,27.5,63a2.471,2.471,0,0,0,1.5-.513,2.449,2.449,0,0,0,3,0,2.449,2.449,0,0,0,3,0A2.471,2.471,0,0,0,36.5,63,2.5,2.5,0,0,0,39,60.5V60h7a17,17,0,0,0,0-34Zm0,25a8,8,0,0,0,0-16H39V34h7a9,9,0,0,1,0,18H39V51Zm-7-2V37h7a6,6,0,0,1,0,12Zm7,5a11,11,0,0,0,0-22H39V31h7a12,12,0,0,1,0,24H39V54ZM18,58a15,15,0,0,1,0-30h7v1H18a14,14,0,0,0,0,28h7v1Zm0-23a8,8,0,0,0,0,16h7v1H18a9,9,0,0,1,0-18h7v1Zm7,2V49H18a6,6,0,0,1,0-12Zm-7-5a11,11,0,0,0,0,22h7v1H18a12,12,0,0,1,0-24h7v1Zm9.5,29a.5.5,0,0,1-.5-.5v-35a.5.5,0,0,1,1,0v35A.5.5,0,0,1,27.5,61Zm3,0a.5.5,0,0,1-.5-.5v-35a.5.5,0,0,1,1,0v35A.5.5,0,0,1,30.5,61Zm3,0a.5.5,0,0,1-.5-.5v-35a.5.5,0,0,1,1,0v35A.5.5,0,0,1,33.5,61Zm3.5-.5a.5.5,0,0,1-1,0v-35a.5.5,0,0,1,1,0ZM46,58H39V57h7a14,14,0,0,0,0-28H39V28h7a15,15,0,0,1,0,30Z"/>
    </g>
  </g>
</svg>
