<svg xmlns="http://www.w3.org/2000/svg" xmlns:xlink="http://www.w3.org/1999/xlink" width="118" height="118" viewBox="0 0 118 118">
  <defs>
    <filter id="Elipse_12115" x="0" y="0" width="118" height="118" filterUnits="userSpaceOnUse">
      <feOffset dy="3" input="SourceAlpha"/>
      <feGaussianBlur stdDeviation="3" result="blur"/>
      <feFlood flood-opacity="0.161"/>
      <feComposite operator="in" in2="blur"/>
      <feComposite in="SourceGraphic"/>
    </filter>
  </defs>
  <g id="Grupo_1188095" data-name="Grupo 1188095" transform="translate(-799.781 -1970)">
    <g id="Grupo_1181939" data-name="Grupo 1181939" transform="translate(808.781 1976)">
      <g transform="matrix(1, 0, 0, 1, -9, -6)" filter="url(#Elipse_12115)">
        <g id="Elipse_12115-2" data-name="Elipse 12115" transform="translate(9 6)" fill="#b0bfc2" stroke="#3c6269" stroke-width="2">
          <circle cx="50" cy="50" r="50" stroke="none"/>
          <circle cx="50" cy="50" r="49" fill="none"/>
        </g>
      </g>
    </g>
    <g id="Glue" transform="translate(826.691 1991.163)">
      <path id="Trazado_1242908" data-name="Trazado 1242908" d="M19,16,23,1h4l4,15Z" fill="#9b7fc9"/>
      <path id="Trazado_1242909" data-name="Trazado 1242909" d="M13,22V19a3,3,0,0,1,3-3H34a3,3,0,0,1,3,3v3Z" fill="#b38ddb"/>
      <rect id="Rect치ngulo_410736" data-name="Rect치ngulo 410736" width="36" height="38" rx="4" transform="translate(7 22)" fill="#c99ae8"/>
      <path id="Trazado_1242910" data-name="Trazado 1242910" d="M40,26V21a3,3,0,0,1,3-3h8a3,3,0,0,1,3,3v5Z" fill="#efa554"/>
      <path id="Trazado_1242911" data-name="Trazado 1242911" d="M39,26H55v5H39Z" fill="#f9bc64"/>
      <path id="Trazado_1242912" data-name="Trazado 1242912" d="M7,51V31H28a3,3,0,0,1,3,3V48a3,3,0,0,1-3,3Z" fill="#b38ddb"/>
      <rect id="Rect치ngulo_410737" data-name="Rect치ngulo 410737" width="20" height="32" rx="2" transform="translate(37 31)" fill="#ffd07b"/>
      <path id="Trazado_1242913" data-name="Trazado 1242913" d="M39,63a2,2,0,0,1-2-2V55H57v6a2,2,0,0,1-2,2Z" fill="#f9bc64"/>
      <path id="Trazado_1242914" data-name="Trazado 1242914" d="M45,36H57V50H45Z" fill="#f9bc64"/>
      <path id="Trazado_1242915" data-name="Trazado 1242915" d="M45,36H57v6H45Z" fill="#efa554"/>
      <path id="Trazado_1242916" data-name="Trazado 1242916" d="M19,46a4,4,0,0,1-4-4c0-1.525,2.009-4.112,4-6,1.991,1.888,4,4.475,4,6a4,4,0,0,1-4,4Z" fill="#9b7fc9"/>
      <g id="Grupo_1188353" data-name="Grupo 1188353">
        <path id="Trazado_1242917" data-name="Trazado 1242917" d="M56,30.184V26a1,1,0,0,0-1-1V21a4,4,0,0,0-4-4H43a4,4,0,0,0-4,4H38V19a4,4,0,0,0-4-4H31.768L27.966.742A1,1,0,0,0,27,0H23a1,1,0,0,0-.966.742L18.232,15H16a4,4,0,0,0-4,4v2H11a5.006,5.006,0,0,0-5,5V56a5.006,5.006,0,0,0,5,5H36a3,3,0,0,0,3,3H55a3,3,0,0,0,3-3V33a3,3,0,0,0-2-2.816ZM46,56v6H43V56Zm2,0h3v6H48ZM38,54V33a1,1,0,0,1,1-1H55a1,1,0,0,1,1,1v2H45a1,1,0,0,0-1,1V50a1,1,0,0,0,1,1H56v3Zm2-27H54v3H40Zm6,16H56v6H46Zm10-2H46V37H56ZM41,21a2,2,0,0,1,2-2h8a2,2,0,0,1,2,2v4H41ZM23.768,2h2.464L29.7,15H20.3ZM14,19a2,2,0,0,1,2-2H34a2,2,0,0,1,2,2v2H14ZM8,32H28a2,2,0,0,1,2,2V48a2,2,0,0,1-2,2H8Zm3,27a3,3,0,0,1-3-3V52H28a4,4,0,0,0,4-4V34a4,4,0,0,0-4-4H8V26a3,3,0,0,1,3-3H39v2a1,1,0,0,0-1,1v4.184A3,3,0,0,0,36,33V59Zm27,2V56h3v6H39A1,1,0,0,1,38,61Zm18,0a1,1,0,0,1-1,1H53V56h3Z" fill="#343342"/>
        <path id="Trazado_1242918" data-name="Trazado 1242918" d="M19.688,35.274a1,1,0,0,0-1.376,0C17.592,35.957,14,39.488,14,42a5,5,0,1,0,10,0C24,39.488,20.408,35.957,19.688,35.274ZM19,45a3,3,0,0,1-3-3c0-1.049,1.583-3.105,3-4.588,1.417,1.48,3,3.537,3,4.588a3,3,0,0,1-3,3Z" fill="#343342"/>
      </g>
    </g>
  </g>
</svg>
