<svg xmlns="http://www.w3.org/2000/svg" xmlns:xlink="http://www.w3.org/1999/xlink" width="118" height="118" viewBox="0 0 118 118">
  <defs>
    <filter id="Elipse_12115" x="0" y="0" width="118" height="118" filterUnits="userSpaceOnUse">
      <feOffset dy="3" input="SourceAlpha"/>
      <feGaussianBlur stdDeviation="3" result="blur"/>
      <feFlood flood-opacity="0.161"/>
      <feComposite operator="in" in2="blur"/>
      <feComposite in="SourceGraphic"/>
    </filter>
    <clipPath id="clip-path">
      <path id="path8149" d="M0-682.665H62.078v62.078H0Z" transform="translate(0 682.665)"/>
    </clipPath>
  </defs>
  <g id="Grupo_1188090" data-name="Grupo 1188090" transform="translate(-799.781 -1970)">
    <g id="Grupo_1181939" data-name="Grupo 1181939" transform="translate(808.781 1976)">
      <g transform="matrix(1, 0, 0, 1, -9, -6)" filter="url(#Elipse_12115)">
        <g id="Elipse_12115-2" data-name="Elipse 12115" transform="translate(9 6)" fill="#b0bfc2" stroke="#3c6269" stroke-width="2">
          <circle cx="50" cy="50" r="50" stroke="none"/>
          <circle cx="50" cy="50" r="49" fill="none"/>
        </g>
      </g>
    </g>
    <g id="g8139" transform="translate(827.743 2677.627)">
      <path id="path8141" d="M226.451-583.635H202.4v-53.476h24.056Z" transform="translate(-183.991 -41.412)" fill="#7a6d79"/>
      <path id="path8143" d="M431.782-583.63h-4.85v-53.475h4.85Z" transform="translate(-388.109 -41.417)" fill="#685e68"/>
      <g id="g8145" transform="translate(0 -682.665)">
        <g id="g8147" clip-path="url(#clip-path)">
          <g id="g8153" transform="translate(3.082 15.631)">
            <path id="path8155" d="M-1.674-128.8H2.841a.167.167,0,0,0,.167-.167,7.867,7.867,0,0,1,7.867-7.867h2.687L26.3-135.621l10.5-1.212a2.425,2.425,0,0,0,2.425-2.425,2.425,2.425,0,0,0-2.425-2.425H10.875A12.716,12.716,0,0,0-1.841-128.967a.167.167,0,0,0,.167.167" transform="translate(1.841 141.684)" fill="#fd8087"/>
          </g>
          <g id="g8157" transform="translate(39.295 15.631)">
            <path id="path8159" d="M-48.483,0h-4.85a2.425,2.425,0,0,1,2.425,2.425A2.425,2.425,0,0,1-53.333,4.85l3.686,1.212,1.163-1.212a2.425,2.425,0,0,0,2.425-2.425A2.425,2.425,0,0,0-48.483,0" transform="translate(53.333)" fill="#fe646f"/>
          </g>
          <g id="g8161" transform="translate(15.508 20.481)">
            <path id="path8163" d="M-262.048-48.483-272.2-47.271l-13.631-1.212a2.425,2.425,0,0,1-2.425-2.425,2.425,2.425,0,0,1,2.425-2.425h23.788a2.425,2.425,0,0,1,2.425,2.425,2.425,2.425,0,0,1-2.425,2.425" transform="translate(288.261 53.333)" fill="#6bd9e7"/>
          </g>
          <g id="g8165" transform="translate(39.295 20.481)">
            <path id="path8167" d="M-48.483,0h-4.85a2.425,2.425,0,0,1,2.425,2.425A2.425,2.425,0,0,1-53.333,4.85l3.311,1.212,1.538-1.212a2.425,2.425,0,0,0,2.425-2.425A2.425,2.425,0,0,0-48.483,0" transform="translate(53.333 0)" fill="#2ed1e1"/>
          </g>
          <g id="g8169" transform="translate(15.508 25.331)">
            <path id="path8171" d="M-262.048-48.483-272-47.271l-13.836-1.212a2.425,2.425,0,0,1-2.425-2.425,2.425,2.425,0,0,1,2.425-2.425h23.788a2.425,2.425,0,0,1,2.425,2.425,2.425,2.425,0,0,1-2.425,2.425" transform="translate(288.261 53.333)" fill="#fd8087"/>
          </g>
          <g id="g8173" transform="translate(39.295 25.331)">
            <path id="path8175" d="M-48.483,0h-4.85a2.425,2.425,0,0,1,2.425,2.425A2.425,2.425,0,0,1-53.333,4.85l3.165,1.212,1.685-1.212a2.425,2.425,0,0,0,2.425-2.425A2.425,2.425,0,0,0-48.483,0" transform="translate(53.333 0)" fill="#fe646f"/>
          </g>
          <g id="g8177" transform="translate(15.508 30.181)">
            <path id="path8179" d="M-262.048-48.483l-10.123,1.212-13.665-1.212a2.425,2.425,0,0,1-2.425-2.425,2.425,2.425,0,0,1,2.425-2.425h23.788a2.425,2.425,0,0,1,2.425,2.425,2.425,2.425,0,0,1-2.425,2.425" transform="translate(288.261 53.333)" fill="#6bd9e7"/>
          </g>
          <g id="g8181" transform="translate(39.295 30.18)">
            <path id="path8183" d="M-48.483,0h-4.85a2.425,2.425,0,0,1,2.425,2.425A2.425,2.425,0,0,1-53.333,4.85L-50,6.062l1.513-1.212a2.425,2.425,0,0,0,2.425-2.425A2.425,2.425,0,0,0-48.483,0" transform="translate(53.333 0)" fill="#2ed1e1"/>
          </g>
          <g id="g8185" transform="translate(15.508 35.031)">
            <path id="path8187" d="M-262.048-48.483l-9.78,1.212-14.007-1.212a2.425,2.425,0,0,1-2.425-2.425,2.425,2.425,0,0,1,2.425-2.425h23.788a2.425,2.425,0,0,1,2.425,2.425,2.425,2.425,0,0,1-2.425,2.425" transform="translate(288.261 53.333)" fill="#fd8087"/>
          </g>
          <g id="g8189" transform="translate(39.295 35.03)">
            <path id="path8191" d="M-48.483,0h-4.85a2.425,2.425,0,0,1,2.425,2.425A2.425,2.425,0,0,1-53.333,4.85l3.607,1.212,1.243-1.212a2.425,2.425,0,0,0,2.425-2.425A2.425,2.425,0,0,0-48.483,0" transform="translate(53.333 0)" fill="#fe646f"/>
          </g>
          <g id="g8193" transform="translate(15.508 39.88)">
            <path id="path8195" d="M-416.1-128.8h-2.818a.167.167,0,0,1-.167-.167,7.867,7.867,0,0,0-7.867-7.867H-455.3a2.425,2.425,0,0,1-2.425-2.425,2.425,2.425,0,0,1,2.425-2.425h26.373l1.974.121c7.023,0,11.019,5.572,11.019,12.6a.167.167,0,0,1-.167.167" transform="translate(457.724 141.684)" fill="#6bd9e7"/>
          </g>
          <g id="g8197" transform="translate(43.733 39.88)">
            <path id="path8199" d="M-152.577-127.123a.168.168,0,0,1-.167.167h-2.546a.168.168,0,0,0,.167-.167A12.717,12.717,0,0,0-167.84-139.84h2.546a12.717,12.717,0,0,1,12.716,12.716" transform="translate(167.84 139.84)" fill="#2ed1e1"/>
          </g>
          <g id="g8201" transform="translate(12.991 54.068)">
            <path id="path8203" d="M-318.424-70.986h-30.033a1.819,1.819,0,0,1-1.819-1.819v-3.463a1.819,1.819,0,0,1,1.819-1.819h30.033a1.819,1.819,0,0,1,1.819,1.819V-72.8a1.819,1.819,0,0,1-1.819,1.819" transform="translate(350.276 78.086)" fill="#f3f0f3"/>
          </g>
          <g id="g8205" transform="translate(12.991 0.909)">
            <path id="path8207" d="M-318.424-70.986h-30.033a1.819,1.819,0,0,1-1.819-1.819v-3.463a1.819,1.819,0,0,1,1.819-1.819h30.033a1.819,1.819,0,0,1,1.819,1.819V-72.8a1.819,1.819,0,0,1-1.819,1.819" transform="translate(350.276 78.086)" fill="#f3f0f3"/>
          </g>
          <g id="g8209" transform="translate(42.418 54.067)">
            <path id="path8211" d="M-66.665-18.181v3.464A1.818,1.818,0,0,1-68.483-12.9h-4.85a1.818,1.818,0,0,0,1.819-1.819v-3.464A1.819,1.819,0,0,0-73.333-20h4.85a1.819,1.819,0,0,1,1.819,1.819" transform="translate(73.333 20)" fill="#e2dee2"/>
          </g>
          <g id="g8213" transform="translate(42.418 0.909)">
            <path id="path8215" d="M-66.665-18.181v3.464A1.818,1.818,0,0,1-68.483-12.9h-4.85a1.818,1.818,0,0,0,1.819-1.819v-3.464A1.819,1.819,0,0,0-73.333-20h4.85a1.819,1.819,0,0,1,1.819,1.819" transform="translate(73.333 20)" fill="#e2dee2"/>
          </g>
          <g id="g8217" transform="translate(18.405 8.308)">
            <path id="path8219" d="M0-71.143V-78.26" transform="translate(0 78.26)" fill="none" stroke="#000" stroke-linecap="round" stroke-linejoin="round" stroke-miterlimit="10" stroke-width="2"/>
          </g>
          <g id="g8221" transform="translate(18.405 44.951)">
            <path id="path8223" d="M0-88.122v-8.815" transform="translate(0 96.937)" fill="none" stroke="#000" stroke-linecap="round" stroke-linejoin="round" stroke-miterlimit="10" stroke-width="2"/>
          </g>
          <g id="g8225" transform="translate(43.673 44.951)">
            <path id="path8227" d="M0,0V8.853" fill="none" stroke="#000" stroke-linecap="round" stroke-linejoin="round" stroke-miterlimit="10" stroke-width="2"/>
          </g>
          <g id="g8229" transform="translate(43.673 8.383)">
            <path id="path8231" d="M0,0V7.087" fill="none" stroke="#000" stroke-linecap="round" stroke-linejoin="round" stroke-miterlimit="10" stroke-width="2"/>
          </g>
          <g id="g8233" transform="translate(12.991 54.068)">
            <path id="path8235" d="M-90.962-70.986h-7.28a1.819,1.819,0,0,1-1.819-1.819v-3.463a1.819,1.819,0,0,1,1.819-1.819h32.458a1.819,1.819,0,0,1,1.819,1.819V-72.8a1.819,1.819,0,0,1-1.819,1.819H-87" transform="translate(100.061 78.086)" fill="none" stroke="#000" stroke-linecap="round" stroke-linejoin="round" stroke-miterlimit="10" stroke-width="2"/>
          </g>
          <g id="g8237" transform="translate(54.645 52.91)">
            <path id="path8239" d="M-19.9,0V1.783a2.533,2.533,0,0,1-.742,1.791l-1.248,1.248" transform="translate(21.887)" fill="none" stroke="#000" stroke-linecap="round" stroke-linejoin="round" stroke-miterlimit="10" stroke-width="2"/>
          </g>
          <g id="g8241" transform="translate(44.314 20.487)">
            <path id="path8243" d="M0,0A2.425,2.425,0,0,1,2.256,2.419,2.425,2.425,0,0,1,.021,4.837" fill="none" stroke="#000" stroke-linecap="round" stroke-linejoin="round" stroke-miterlimit="10" stroke-width="2"/>
          </g>
          <g id="g8245" transform="translate(15.507 20.481)">
            <path id="path8247" d="M-21.9-48.372A2.425,2.425,0,0,1-24.1-50.786a2.425,2.425,0,0,1,2.425-2.425" transform="translate(24.096 53.211)" fill="none" stroke="#000" stroke-linecap="round" stroke-linejoin="round" stroke-miterlimit="10" stroke-width="2"/>
          </g>
          <g id="g8249" transform="translate(15.508 25.331)">
            <path id="path8251" d="M-22.448-48.418a2.425,2.425,0,0,1-2.245-2.418,2.425,2.425,0,0,1,2.425-2.425H3.944a2.425,2.425,0,0,1,2.425,2.425,2.425,2.425,0,0,1-2.236,2.418" transform="translate(24.693 53.261)" fill="none" stroke="#000" stroke-linecap="round" stroke-linejoin="round" stroke-miterlimit="10" stroke-width="2"/>
          </g>
          <g id="g8253" transform="translate(15.508 30.181)">
            <path id="path8255" d="M-22.579-48.426a2.425,2.425,0,0,1-2.259-2.419,2.425,2.425,0,0,1,2.425-2.425H3.8a2.425,2.425,0,0,1,2.425,2.425,2.425,2.425,0,0,1-2.271,2.42" transform="translate(24.837 53.271)" fill="none" stroke="#000" stroke-linecap="round" stroke-linejoin="round" stroke-miterlimit="10" stroke-width="2"/>
          </g>
          <g id="g8257" transform="translate(15.508 35.031)">
            <path id="path8259" d="M-21.83-48.365a2.425,2.425,0,0,1-2.184-2.413A2.425,2.425,0,0,1-21.588-53.2H4.624a2.425,2.425,0,0,1,2.425,2.425,2.425,2.425,0,0,1-2.217,2.416" transform="translate(24.013 53.203)" fill="none" stroke="#000" stroke-linecap="round" stroke-linejoin="round" stroke-miterlimit="10" stroke-width="2"/>
          </g>
          <g id="g8261" transform="translate(15.508 39.88)">
            <path id="path8263" d="M-433.071-128.8h-4.515a.167.167,0,0,1-.167-.167,7.867,7.867,0,0,0-7.867-7.867h-28.346a2.425,2.425,0,0,1-2.425-2.425,2.425,2.425,0,0,1,2.425-2.425h28.346A12.716,12.716,0,0,1-432.9-128.967.167.167,0,0,1-433.071-128.8Z" transform="translate(476.391 141.684)" fill="none" stroke="#000" stroke-linecap="round" stroke-linejoin="round" stroke-miterlimit="10" stroke-width="2"/>
          </g>
          <g id="g8265" transform="translate(5.442 28.644)">
            <path id="path8267" d="M0,0V1.791A2.532,2.532,0,0,0,.742,3.582L1.99,4.83" fill="none" stroke="#000" stroke-linecap="round" stroke-linejoin="round" stroke-miterlimit="10" stroke-width="2"/>
          </g>
          <g id="g8269" transform="translate(3.082 15.631)">
            <path id="path8271" d="M-210.291,0h-8.319a12.716,12.716,0,0,0-12.716,12.716.167.167,0,0,0,.167.167h4.515a.167.167,0,0,0,.167-.167A7.867,7.867,0,0,1-218.61,4.85h28.346a2.425,2.425,0,0,0,2.425-2.425A2.425,2.425,0,0,0-190.263,0h-16.064" transform="translate(231.326 0)" fill="none" stroke="#000" stroke-linecap="round" stroke-linejoin="round" stroke-miterlimit="10" stroke-width="2"/>
          </g>
          <g id="g8273" transform="translate(12.991 0.909)">
            <path id="path8275" d="M-293.881,0H-289a1.819,1.819,0,0,1,1.819,1.819V5.282A1.819,1.819,0,0,1-289,7.1h-32.458a1.819,1.819,0,0,1-1.819-1.819V1.819A1.819,1.819,0,0,1-321.459,0h23.615" transform="translate(323.278)" fill="none" stroke="#000" stroke-linecap="round" stroke-linejoin="round" stroke-miterlimit="10" stroke-width="2"/>
          </g>
        </g>
      </g>
    </g>
  </g>
</svg>
