<svg xmlns="http://www.w3.org/2000/svg" xmlns:xlink="http://www.w3.org/1999/xlink" width="118" height="118" viewBox="0 0 118 118">
  <defs>
    <filter id="Elipse_12115" x="0" y="0" width="118" height="118" filterUnits="userSpaceOnUse">
      <feOffset dy="3" input="SourceAlpha"/>
      <feGaussianBlur stdDeviation="3" result="blur"/>
      <feFlood flood-opacity="0.161"/>
      <feComposite operator="in" in2="blur"/>
      <feComposite in="SourceGraphic"/>
    </filter>
  </defs>
  <g id="Grupo_1188091" data-name="Grupo 1188091" transform="translate(-799.781 -1970)">
    <g id="Grupo_1181939" data-name="Grupo 1181939" transform="translate(808.781 1976)">
      <g transform="matrix(1, 0, 0, 1, -9, -6)" filter="url(#Elipse_12115)">
        <g id="Elipse_12115-2" data-name="Elipse 12115" transform="translate(9 6)" fill="#b0bfc2" stroke="#3c6269" stroke-width="2">
          <circle cx="50" cy="50" r="50" stroke="none"/>
          <circle cx="50" cy="50" r="49" fill="none"/>
        </g>
      </g>
    </g>
    <g id="lasso_8582990" transform="translate(802.667 1989.686)">
      <path id="Trazado_1242877" data-name="Trazado 1242877" d="M56.636,146.034a1.835,1.835,0,0,1-.8-.184c-2.122-1.026-4.594-2.824-4.326-5.562.188-1.916,1.668-3.62,4.524-5.21a49.835,49.835,0,0,1,11.2-4.065c7.352-1.915,9.936-4.532,9.838-5.732-.055-.667-1.007-1.754-3.516-2.808-3.027-1.271-7.675-2.221-13.441-2.747l-.078-.009c-11.134-1.5-19.536-3.57-24.971-6.166-4.98-2.379-7.622-5.268-7.853-8.585-.172-2.475,1.036-4.94,3.493-7.129a17.438,17.438,0,0,1,6.442-3.6,1.842,1.842,0,1,1,.992,3.549c-3.093.865-7.456,3.991-7.251,6.923.13,1.869,2.124,3.776,5.765,5.516,5.081,2.428,13.1,4.391,23.834,5.834,12.869,1.179,19.874,4.263,20.256,8.919.323,3.934-4.263,7.432-12.581,9.6A46.4,46.4,0,0,0,57.826,138.3c-2.019,1.124-2.615,2.006-2.649,2.35-.03.3.548,1.056,2.262,1.885a1.843,1.843,0,0,1-.8,3.5Z" transform="translate(0 -75.72)" fill="#f99675"/>
      <path id="Trazado_1242878" data-name="Trazado 1242878" d="M60.035,133.463C48.9,131.968,40.5,129.893,35.064,127.3c-4.98-2.379-7.622-5.267-7.852-8.584-.173-2.475,1.035-4.941,3.493-7.13a17.008,17.008,0,0,1,2.249-1.678q-.237.193-.461.393c-2.458,2.19-3.666,4.655-3.494,7.13.231,3.317,2.873,6.206,7.854,8.585,5.435,2.6,13.836,4.67,24.97,6.167.027,0,.052.006.078.008,5.766.527,10.414,1.476,13.441,2.747,2.508,1.054,3.461,2.142,3.517,2.808.056.684-.758,1.827-2.829,3.039.763-.7,1.077-1.32,1.041-1.754-.054-.667-1.007-1.755-3.517-2.808-3.026-1.271-7.675-2.221-13.441-2.747Z" transform="translate(-0.002 -89.466)" fill="#f68157"/>
      <path id="Trazado_1242879" data-name="Trazado 1242879" d="M39.681,122.132a12.752,12.752,0,0,1,1.931-2.122q.262-.233.541-.459" transform="translate(-10.909 -97.893)" fill="none" stroke="#000" stroke-linecap="round" stroke-linejoin="round" stroke-miterlimit="10" stroke-width="2"/>
      <path id="Trazado_1242880" data-name="Trazado 1242880" d="M58.369,146.745a5.277,5.277,0,0,0-2.01,3.895c.13,1.869,2.123,3.776,5.765,5.516,5.081,2.427,13.1,4.391,23.834,5.834,12.869,1.179,19.875,4.262,20.256,8.919.183,2.228-1.208,4.317-3.962,6.1" transform="translate(-25.472 -121.649)" fill="none" stroke="#000" stroke-linecap="round" stroke-linejoin="round" stroke-miterlimit="10" stroke-width="2"/>
      <path id="Trazado_1242881" data-name="Trazado 1242881" d="M27.216,171.809a6.716,6.716,0,0,0,0,.983c.231,3.317,2.872,6.2,7.852,8.584,5.435,2.6,13.837,4.672,24.971,6.167l.078.009c5.766.526,10.414,1.476,13.44,2.747,2.51,1.054,3.462,2.141,3.517,2.808.1,1.2-2.484,3.816-9.837,5.732a49.855,49.855,0,0,0-11.2,4.065c-2.857,1.59-4.337,3.293-4.525,5.21-.268,2.738,2.205,4.535,4.327,5.561a1.842,1.842,0,0,0,1.6-3.317c-1.715-.829-2.292-1.581-2.263-1.884.034-.345.631-1.227,2.65-2.35A46.361,46.361,0,0,1,68.162,202.4a39.5,39.5,0,0,0,4.681-1.511" transform="translate(-0.002 -143.545)" fill="none" stroke="#000" stroke-linecap="round" stroke-linejoin="round" stroke-miterlimit="10" stroke-width="2"/>
      <path id="Trazado_1242882" data-name="Trazado 1242882" d="M101.685,33.1a43.894,43.894,0,0,1-17.738-3.375C78.719,27.336,75.84,23.99,75.84,20.3s2.879-7.036,8.108-9.422A43.9,43.9,0,0,1,101.685,7.5a43.9,43.9,0,0,1,17.738,3.375c5.228,2.386,8.108,5.732,8.108,9.422s-2.879,7.036-8.108,9.422A43.9,43.9,0,0,1,101.685,33.1Zm0-21.91c-13.06,0-22.161,4.8-22.161,9.113s9.1,9.113,22.161,9.113,22.161-4.8,22.161-9.113S114.745,11.188,101.685,11.188Z" transform="translate(-42.497 -0.007)" fill="#f99675"/>
      <path id="Trazado_1242883" data-name="Trazado 1242883" d="M78.408,20.293c0-3.69,2.879-7.037,8.108-9.423a42.987,42.987,0,0,1,16.454-3.36q-.641-.015-1.285-.015A43.905,43.905,0,0,0,83.946,10.87c-5.227,2.386-8.107,5.733-8.107,9.423s2.88,7.036,8.108,9.422a43.905,43.905,0,0,0,17.738,3.375q.644,0,1.285-.015a42.988,42.988,0,0,1-16.454-3.36C81.287,27.329,78.408,23.983,78.408,20.293Z" transform="translate(-42.496 0)" fill="#f68157"/>
      <path id="Trazado_1242884" data-name="Trazado 1242884" d="M85.515,24.154c3.491,2.9,10.7,5.257,19.858,5.257,13.06,0,22.161-4.8,22.161-9.112s-9.1-9.113-22.161-9.113c-10.606,0-18.6,3.168-21.231,6.667m40.937-5.97c3.978,2.28,6.139,5.218,6.139,8.416,0,3.69-2.88,7.036-8.108,9.422A43.9,43.9,0,0,1,105.373,33.1,43.905,43.905,0,0,1,87.635,29.72,18.308,18.308,0,0,1,82.15,26.07M80.061,17.6c1.055-2.608,3.654-4.937,7.574-6.725A43.9,43.9,0,0,1,105.373,7.5a46.3,46.3,0,0,1,15.692,2.536" transform="translate(-46.185 -0.004)" fill="none" stroke="#000" stroke-linecap="round" stroke-linejoin="round" stroke-miterlimit="10" stroke-width="2"/>
      <circle id="Elipse_12273" data-name="Elipse 12273" cx="4.431" cy="4.431" r="4.431" transform="translate(31.244 17.215)" fill="#f99675"/>
      <path id="Trazado_1242885" data-name="Trazado 1242885" d="M65.173,93a4.43,4.43,0,1,1,0-8.335,4.431,4.431,0,0,0,0,8.335Z" transform="translate(-27.994 -67.183)" fill="#f68157"/>
      <circle id="Elipse_12274" data-name="Elipse 12274" cx="4.431" cy="4.431" r="4.431" transform="translate(31.244 17.215)" fill="none" stroke="#000" stroke-linecap="round" stroke-linejoin="round" stroke-miterlimit="10" stroke-width="2"/>
      <path id="Trazado_1242886" data-name="Trazado 1242886" d="M66.73,97.8s2.134,4.941,7.914,2.736" transform="translate(-34.539 -78.893)" fill="none" stroke="#000" stroke-linecap="round" stroke-linejoin="round" stroke-miterlimit="10" stroke-width="2"/>
    </g>
  </g>
</svg>
