<svg xmlns="http://www.w3.org/2000/svg" xmlns:xlink="http://www.w3.org/1999/xlink" width="118" height="118" viewBox="0 0 118 118">
  <defs>
    <filter id="Elipse_12115" x="0" y="0" width="118" height="118" filterUnits="userSpaceOnUse">
      <feOffset dy="3" input="SourceAlpha"/>
      <feGaussianBlur stdDeviation="3" result="blur"/>
      <feFlood flood-opacity="0.161"/>
      <feComposite operator="in" in2="blur"/>
      <feComposite in="SourceGraphic"/>
    </filter>
  </defs>
  <g id="Grupo_1188097" data-name="Grupo 1188097" transform="translate(-799.781 -1970)">
    <g id="Grupo_1181939" data-name="Grupo 1181939" transform="translate(808.781 1976)">
      <g transform="matrix(1, 0, 0, 1, -9, -6)" filter="url(#Elipse_12115)">
        <g id="Elipse_12115-2" data-name="Elipse 12115" transform="translate(9 6)" fill="#b0bfc2" stroke="#3c6269" stroke-width="2">
          <circle cx="50" cy="50" r="50" stroke="none"/>
          <circle cx="50" cy="50" r="49" fill="none"/>
        </g>
      </g>
    </g>
    <g id="star_5650319" transform="translate(815.151 1993.212)">
      <g id="Grupo_1188362" data-name="Grupo 1188362" transform="translate(15.581 0.916)">
        <path id="Trazado_1242925" data-name="Trazado 1242925" d="M71.127,106.787A34.319,34.319,0,0,1,47.251,82.863l-.666-2.408-.666,2.408a34.319,34.319,0,0,1-23.876,23.924,34.32,34.32,0,0,1,23.876,23.924l.666,2.408.666-2.408A34.319,34.319,0,0,1,71.127,106.787Z" transform="translate(-22.043 -71.376)" fill="#fee45a"/>
        <path id="Trazado_1242926" data-name="Trazado 1242926" d="M226.618,106.787a34.32,34.32,0,0,1-23.876-23.924l-.666-2.408-.666,2.408a34.4,34.4,0,0,1-1.819,5.02c4.157,9.179,9.7,16.161,19.573,18.9-9.868,2.743-15.416,9.725-19.573,18.9a34.406,34.406,0,0,1,1.819,5.02l.666,2.408.666-2.408A34.319,34.319,0,0,1,226.618,106.787Z" transform="translate(-177.535 -71.376)" fill="#fed402"/>
        <path id="Trazado_1242927" data-name="Trazado 1242927" d="M352.556,17.815a13.6,13.6,0,0,1-9.464-9.483l-.264-.954-.264.954a13.6,13.6,0,0,1-9.464,9.483,13.6,13.6,0,0,1,9.464,9.483l.264.954.264-.954A13.6,13.6,0,0,1,352.556,17.815Z" transform="translate(-294.457 -7.377)" fill="#fee45a"/>
        <path id="Trazado_1242928" data-name="Trazado 1242928" d="M403.619,17.815a13.6,13.6,0,0,1-9.464-9.483l-.264-.954-.264.954a13.611,13.611,0,0,1-2.221,4.528s3.061,4.139,6,4.956c-2.94.817-6,4.956-6,4.956a13.613,13.613,0,0,1,2.221,4.528l.264.954.264-.954A13.6,13.6,0,0,1,403.619,17.815Z" transform="translate(-345.519 -7.377)" fill="#fed402"/>
        <g id="Grupo_1188361" data-name="Grupo 1188361" transform="translate(0 10.396)">
          <path id="Trazado_1242929" data-name="Trazado 1242929" d="M374.248,404.415a8.59,8.59,0,0,1-5.976-5.988l-.167-.6-.167.6a8.59,8.59,0,0,1-5.976,5.988,8.59,8.59,0,0,1,5.976,5.988l.167.6.167-.6A8.59,8.59,0,0,1,374.248,404.415Z" transform="translate(-319.734 -359.715)" fill="#99e6fc"/>
          <path id="Trazado_1242930" data-name="Trazado 1242930" d="M31.663,96.224a6.727,6.727,0,0,1-4.68-4.69l-.131-.472-.131.472a6.727,6.727,0,0,1-4.68,4.69,6.727,6.727,0,0,1,4.68,4.69l.131.472.131-.472A6.727,6.727,0,0,1,31.663,96.224Z" transform="translate(-22.041 -91.062)" fill="#99e6fc"/>
        </g>
      </g>
      <g id="Grupo_1188363" data-name="Grupo 1188363" transform="translate(14.665 0)">
        <path id="Trazado_1242931" data-name="Trazado 1242931" d="M65.6,100.327a.932.932,0,0,0-.682-.9c-12.6-3.5-20.515-13.473-23.894-25.683a.938.938,0,0,0-1.8,0c-3.378,12.211-11.289,22.18-23.893,25.683a.938.938,0,0,0,0,1.8A33.389,33.389,0,0,1,34.09,114.77a.932.932,0,0,0,1.547-1.039,35.266,35.266,0,0,0-17.029-13.4A35.532,35.532,0,0,0,40.124,77.452a35.532,35.532,0,0,0,21.517,22.875A35.532,35.532,0,0,0,40.124,123.2a35.417,35.417,0,0,0-1.969-5.069.932.932,0,0,0-1.68.807,47.263,47.263,0,0,1,2.751,7.968.938.938,0,0,0,1.8,0C44.4,114.7,52.311,104.728,64.915,101.225a.931.931,0,0,0,.682-.9Z" transform="translate(-14.665 -64)"/>
        <path id="Trazado_1242932" data-name="Trazado 1242932" d="M346.344,10.456a12.719,12.719,0,0,1-5.033-2.749A.932.932,0,0,0,340.07,9.1a14.589,14.589,0,0,0,3.39,2.257,14.659,14.659,0,0,0-7.094,7.424,14.659,14.659,0,0,0-7.1-7.424,14.659,14.659,0,0,0,7.095-7.423q.218.513.476,1.01a.932.932,0,1,0,1.654-.858A16.316,16.316,0,0,1,337.264.668a.938.938,0,0,0-1.8,0c-1.221,4.633-4.339,8.471-9.08,9.789a.938.938,0,0,0,0,1.8c4.741,1.318,7.86,5.159,9.08,9.789a.938.938,0,0,0,1.8,0c1.221-4.633,4.34-8.471,9.08-9.788a.938.938,0,0,0,0-1.8Z" transform="translate(-287.078 0)"/>
        <path id="Trazado_1242933" data-name="Trazado 1242933" d="M368.035,397.058a7.93,7.93,0,0,1-5.494-5.941.938.938,0,0,0-1.8,0,7.922,7.922,0,0,1-5.494,5.941.938.938,0,0,0,0,1.8,7.93,7.93,0,0,1,5.494,5.941.938.938,0,0,0,1.8,0,7.922,7.922,0,0,1,5.494-5.941A.938.938,0,0,0,368.035,397.058Zm-6.392,4.784a9.617,9.617,0,0,0-3.743-3.887,9.616,9.616,0,0,0,3.743-3.887,9.617,9.617,0,0,0,3.743,3.887A9.617,9.617,0,0,0,361.644,401.842Z" transform="translate(-312.356 -341.942)"/>
        <path id="Trazado_1242934" data-name="Trazado 1242934" d="M15.331,90.661a6.032,6.032,0,0,1,4.162,4.512.938.938,0,0,0,1.8,0,6.028,6.028,0,0,1,4.162-4.512.938.938,0,0,0,0-1.8,6.032,6.032,0,0,1-4.162-4.512.938.938,0,0,0-1.8,0,6.028,6.028,0,0,1-4.162,4.512A.938.938,0,0,0,15.331,90.661Zm5.06-3.525a7.739,7.739,0,0,0,2.54,2.627,7.738,7.738,0,0,0-2.54,2.627,7.741,7.741,0,0,0-2.54-2.627,7.741,7.741,0,0,0,2.54-2.627Z" transform="translate(-14.665 -73.288)"/>
      </g>
    </g>
  </g>
</svg>
