<svg xmlns="http://www.w3.org/2000/svg" width="76.345" height="76.344" viewBox="0 0 76.345 76.344">
  <g id="Grupo_1187910" data-name="Grupo 1187910" transform="translate(-1024.691 -3093)">
    <g id="Grupo_1185946" data-name="Grupo 1185946" transform="translate(-0.346 0.345)">
      <g id="Grupo_1184280" data-name="Grupo 1184280">
        <g id="Grupo_1182168" data-name="Grupo 1182168">
          <g id="Grupo_1178877" data-name="Grupo 1178877">
            <g id="Grupo_1111311" data-name="Grupo 1111311">
              <g id="Grupo_1098742" data-name="Grupo 1098742" transform="translate(1025.482 3093.101)">
                <g id="Rect치ngulo_400898" data-name="Rect치ngulo 400898" transform="translate(-0.445 -0.445)" fill="#ffd5a8" stroke="#3c6269" stroke-width="1" opacity="0.859">
                  <rect width="76.345" height="76.345" rx="38.172" stroke="none"/>
                  <rect x="0.5" y="0.5" width="75.345" height="75.345" rx="37.672" fill="none"/>
                </g>
                <g id="Rect치ngulo_400907" data-name="Rect치ngulo 400907" transform="translate(-0.446 -0.445)" fill="none" stroke="#3c6269" stroke-width="1">
                  <rect width="76.345" height="76.345" rx="38.172" stroke="none"/>
                  <rect x="0.5" y="0.5" width="75.345" height="75.345" rx="37.672" fill="none"/>
                </g>
              </g>
            </g>
          </g>
        </g>
      </g>
    </g>
    <g id="briefcase_2361569" transform="translate(1022.691 3090.01)">
      <path id="Trazado_1241411" data-name="Trazado 1241411" d="M71.3,163.573V147.262A3.262,3.262,0,0,0,68.04,144H27.262A3.262,3.262,0,0,0,24,147.262v16.311Z" transform="translate(-7.184 -114.96)" fill="#b1712c"/>
      <path id="Trazado_1241412" data-name="Trazado 1241412" d="M71.3,336v12.233A3.262,3.262,0,0,1,68.04,351.5H27.262A3.262,3.262,0,0,1,24,348.233V336Z" transform="translate(-7.184 -287.387)" fill="#91591c"/>
      <path id="Trazado_1241413" data-name="Trazado 1241413" d="M144,144h6.524v13.049H144Z" transform="translate(-114.951 -114.96)" fill="#c78640"/>
      <path id="Trazado_1241414" data-name="Trazado 1241414" d="M304,144h6.524v13.049H304Z" transform="translate(-258.64 -114.96)" fill="#c78640"/>
      <path id="Trazado_1241415" data-name="Trazado 1241415" d="M144,376h6.524v11.418H144Z" transform="translate(-114.951 -323.309)" fill="#b1712c"/>
      <path id="Trazado_1241416" data-name="Trazado 1241416" d="M136,272h8.156v3.262H136Z" transform="translate(-107.767 -229.911)" fill="#d69651"/>
      <path id="Trazado_1241417" data-name="Trazado 1241417" d="M150.524,312.156l-3.262,3.262L144,312.156V304h6.524Z" transform="translate(-114.951 -258.649)" fill="#c78640"/>
      <path id="Trazado_1241418" data-name="Trazado 1241418" d="M296,272h8.156v3.262H296Z" transform="translate(-251.455 -229.911)" fill="#d69651"/>
      <path id="Trazado_1241419" data-name="Trazado 1241419" d="M160.311,36.233l1.631-2.447h0a6.524,6.524,0,0,0-6.524-6.524h0a6.524,6.524,0,0,0-6.524,6.524h0l1.631,2.447H144l1.631-2.447h0A9.787,9.787,0,0,1,155.418,24h0a9.787,9.787,0,0,1,9.787,9.787h0l1.631,2.447Z" transform="translate(-114.951 -7.193)" fill="#a36522"/>
      <path id="Trazado_1241420" data-name="Trazado 1241420" d="M304,376h6.524v11.418H304Z" transform="translate(-258.64 -323.309)" fill="#b1712c"/>
      <path id="Trazado_1241421" data-name="Trazado 1241421" d="M310.524,312.156l-3.262,3.262L304,312.156V304h6.524Z" transform="translate(-258.64 -258.649)" fill="#c78640"/>
      <path id="Trazado_1241422" data-name="Trazado 1241422" d="M60.856,28.225H52.321l-1.255-1.882a10.6,10.6,0,0,0-21.2,0l-1.255,1.882H20.078A4.082,4.082,0,0,0,16,32.3V60.847a4.082,4.082,0,0,0,4.078,4.078H60.856a4.082,4.082,0,0,0,4.078-4.078V32.3a4.082,4.082,0,0,0-4.078-4.078ZM63.3,32.3V47.8H52.7V46.167a.816.816,0,0,0,.816-.816V42.089a.816.816,0,0,0-.816-.816V34.749h.816V33.118H52.7V29.856h8.156A2.449,2.449,0,0,1,63.3,32.3ZM34.763,26.354a5.709,5.709,0,0,1,11.408,0l-1.247,1.871H36.01ZM51.069,53.169l-2.447,2.447-2.447-2.447v-7h4.893ZM35.573,42.9v1.631H29.049V42.9Zm.816,3.262a.816.816,0,0,0,.816-.816V42.089a.816.816,0,0,0-.816-.816V34.749H37.2V33.118h-.816V29.856h8.156v3.262h-.816v1.631h.816v6.524a.816.816,0,0,0-.816.816v3.262a.816.816,0,0,0,.816.816V47.8H36.389Zm8.971-1.631V42.9h6.524v1.631Zm.816-3.262V34.749h1.631V36.38h1.631V34.749h1.631v6.524Zm0-8.156V29.856h4.893v3.262Zm-11.418,0H29.865V29.856h4.893ZM31.5,34.749V36.38h1.631V34.749h1.631v6.524H29.865V34.749Zm3.262,11.418v7l-2.447,2.447-2.447-2.447v-7Zm-4.893,9.309,1.87,1.87a.815.815,0,0,0,1.153,0l1.87-1.87v7.818H29.865Zm6.524-6.047h8.156V63.293H36.389Zm9.787,6.047,1.87,1.87a.815.815,0,0,0,1.153,0l1.87-1.87v7.818H46.176ZM31.359,27.046a.815.815,0,0,0,.137-.452,8.971,8.971,0,1,1,17.942,0,.815.815,0,0,0,.137.452l.786,1.179H46.884l.786-1.179a.815.815,0,0,0,.137-.452,7.34,7.34,0,0,0-14.68,0,.815.815,0,0,0,.137.452l.786,1.179H30.573Zm-11.281,2.81h8.156v3.262h-.816v1.631h.816v6.524a.816.816,0,0,0-.816.816v3.262a.816.816,0,0,0,.816.816V47.8h-10.6V32.3A2.449,2.449,0,0,1,20.078,29.856ZM17.631,60.847V49.429h10.6V63.293H20.078A2.449,2.449,0,0,1,17.631,60.847Zm43.224,2.447H52.7V49.429H63.3V60.847A2.449,2.449,0,0,1,60.856,63.293Z"/>
      <path id="Trazado_1241423" data-name="Trazado 1241423" d="M168,232h1.631v1.631H168Z" transform="translate(-136.504 -193.989)"/>
      <path id="Trazado_1241424" data-name="Trazado 1241424" d="M328,232h1.631v1.631H328Z" transform="translate(-280.193 -193.989)"/>
    </g>
  </g>
</svg>
