<svg xmlns="http://www.w3.org/2000/svg" xmlns:xlink="http://www.w3.org/1999/xlink" width="108" height="108" viewBox="0 0 108 108">
  <defs>
    <filter id="Elipse_12115" x="0" y="0" width="108" height="108" filterUnits="userSpaceOnUse">
      <feOffset dy="3" input="SourceAlpha"/>
      <feGaussianBlur stdDeviation="3" result="blur"/>
      <feFlood flood-opacity="0.161"/>
      <feComposite operator="in" in2="blur"/>
      <feComposite in="SourceGraphic"/>
    </filter>
  </defs>
  <g id="Grupo_1188101" data-name="Grupo 1188101" transform="translate(-800.012 -2543.23)">
    <g transform="matrix(1, 0, 0, 1, 800.01, 2543.23)" filter="url(#Elipse_12115)">
      <g id="Elipse_12115-2" data-name="Elipse 12115" transform="translate(9 6)" fill="#ffd5a8" stroke="#ff9927" stroke-width="2">
        <circle cx="45" cy="45" r="45" stroke="none"/>
        <circle cx="45" cy="45" r="44" fill="none"/>
      </g>
    </g>
    <g id="camera-bag_5848757" transform="translate(817.262 2570.521)">
      <path id="Trazado_1241699" data-name="Trazado 1241699" d="M13.483,48.742H8.742A4.742,4.742,0,0,1,4,44h9.483Z" transform="translate(-0.443 -6.066)" fill="#795348"/>
      <path id="Trazado_1241700" data-name="Trazado 1241700" d="M13.854,31.113,9.4,35.566A17.177,17.177,0,0,0,4.371,47.709l-.638-.957a10.317,10.317,0,0,1,.951-12.664L13.854,24Z" transform="translate(-0.814 -9.775)" fill="#916657"/>
      <path id="Trazado_1241701" data-name="Trazado 1241701" d="M57.047,56.563a2.371,2.371,0,0,0,2.371-2.371V23.371A2.371,2.371,0,0,0,57.047,21H14.371A2.371,2.371,0,0,0,12,23.371V54.192a2.371,2.371,0,0,0,2.371,2.371Z" transform="translate(1.041 -10.331)" fill="#795348"/>
      <path id="Trazado_1241702" data-name="Trazado 1241702" d="M54.676,36.377H16.742A5.906,5.906,0,0,1,12,33.969V51.787a2.371,2.371,0,0,0,2.371,2.371H57.047a2.371,2.371,0,0,0,2.371-2.371V33.969A5.906,5.906,0,0,1,54.676,36.377Z" transform="translate(1.041 -7.926)" fill="#916657"/>
      <path id="Trazado_1241703" data-name="Trazado 1241703" d="M59.417,32.854A4.742,4.742,0,0,1,54.676,37.6H16.742A4.742,4.742,0,0,1,12,32.854V23.371A2.371,2.371,0,0,1,14.371,21H57.047a2.371,2.371,0,0,1,2.371,2.371Z" transform="translate(1.041 -10.331)" fill="#a37763"/>
      <path id="Trazado_1241704" data-name="Trazado 1241704" d="M55.861,26.371A2.371,2.371,0,0,0,53.49,24H12v8.3a4.742,4.742,0,0,0,4.742,4.742H54.676a4.711,4.711,0,0,0,1.057-.128,4.7,4.7,0,0,0,.128-1.057Z" transform="translate(1.041 -9.775)" fill="#bf9275"/>
      <path id="Trazado_1241705" data-name="Trazado 1241705" d="M34,35V46.854a2.371,2.371,0,0,0,2.371,2.371H48.225A2.371,2.371,0,0,0,50.6,46.854V35" transform="translate(5.12 -7.735)" fill="#795348"/>
      <path id="Trazado_1241706" data-name="Trazado 1241706" d="M16,35V46.854a2.371,2.371,0,0,0,2.371,2.371H30.225A2.371,2.371,0,0,0,32.6,46.854V35" transform="translate(1.782 -7.735)" fill="#795348"/>
      <path id="Trazado_1241707" data-name="Trazado 1241707" d="M21,21V44.709l2.371,2.371,2.371-2.371V21" transform="translate(2.71 -10.331)" fill="#383838"/>
      <path id="Trazado_1241708" data-name="Trazado 1241708" d="M43.742,22.3H41.371V18.742A2.371,2.371,0,0,0,39,16.371V14a4.742,4.742,0,0,1,4.742,4.742Z" transform="translate(6.047 -11.629)" fill="#a37763"/>
      <path id="Trazado_1241709" data-name="Trazado 1241709" d="M23.371,22.3H21V18.742A4.742,4.742,0,0,1,25.742,14v2.371a2.371,2.371,0,0,0-2.371,2.371Z" transform="translate(2.71 -11.629)" fill="#a37763"/>
      <path id="Trazado_1241710" data-name="Trazado 1241710" d="M25,13H41.6v4.742H25Z" transform="translate(3.451 -11.815)" fill="#795348"/>
      <path id="Trazado_1241711" data-name="Trazado 1241711" d="M52,48.742h4.742A4.742,4.742,0,0,0,61.483,44H52Z" transform="translate(8.458 -6.066)" fill="#795348"/>
      <path id="Trazado_1241712" data-name="Trazado 1241712" d="M52,31.113l4.455,4.455a17.177,17.177,0,0,1,5.029,12.141l.638-.957a10.317,10.317,0,0,0-.951-12.664L52,24Z" transform="translate(8.458 -9.775)" fill="#916657"/>
      <path id="Trazado_1241713" data-name="Trazado 1241713" d="M39,21V44.709l2.371,2.371,2.371-2.371V21" transform="translate(6.047 -10.331)" fill="#383838"/>
      <path id="Trazado_1241714" data-name="Trazado 1241714" d="M24.185,45.894l1.185-1.185V21H23V44.709Z" transform="translate(3.08 -10.331)" fill="#4c4c4c"/>
      <path id="Trazado_1241715" data-name="Trazado 1241715" d="M25.742,37H21v4.742l2.371,2.371,2.371-2.371Z" transform="translate(2.71 -7.364)" fill="#f9cb52"/>
      <path id="Trazado_1241716" data-name="Trazado 1241716" d="M42.185,45.894l1.185-1.185V21H41V44.709Z" transform="translate(6.418 -10.331)" fill="#4c4c4c"/>
      <path id="Trazado_1241717" data-name="Trazado 1241717" d="M43.742,37H39v4.742l2.371,2.371,2.371-2.371Z" transform="translate(6.047 -7.364)" fill="#f9cb52"/>
      <path id="Trazado_1241718" data-name="Trazado 1241718" d="M29.371,15.371H41.225V13H27A2.371,2.371,0,0,0,29.371,15.371Z" transform="translate(3.822 -11.815)" fill="#916657"/>
      <path id="Trazado_1241719" data-name="Trazado 1241719" d="M62.643,25.766V25.04a3.556,3.556,0,0,0-3.556-3.556h-8.3V19.113a4.742,4.742,0,0,0-3.556-4.573V13.185A1.185,1.185,0,0,0,46.047,12h-16.6a1.185,1.185,0,0,0-1.185,1.185v1.354a4.742,4.742,0,0,0-3.556,4.573v2.371h-8.3a3.556,3.556,0,0,0-3.556,3.556v.727l-8.862,9.75a11.5,11.5,0,0,0-1.06,14.119l.481.722a5.917,5.917,0,0,0,5.885,5.5h3.556a3.556,3.556,0,0,0,3.556,3.556H59.086a3.556,3.556,0,0,0,3.556-3.556H66.2a5.917,5.917,0,0,0,5.885-5.5l.481-.722a11.5,11.5,0,0,0-1.059-14.119Zm0,10.432,2.431,2.431A15.86,15.86,0,0,1,69.7,48.748H62.643ZM60.272,25.04v9.483a3.556,3.556,0,0,1-3.556,3.556H51.974V23.854h7.113a1.185,1.185,0,0,1,1.185,1.185ZM19.967,40.45h3.556v5.927a1.185,1.185,0,0,0,.347.838l2.371,2.371a1.185,1.185,0,0,0,1.676,0l2.371-2.371a1.185,1.185,0,0,0,.347-.838V40.45h3.556V51.119A1.185,1.185,0,0,1,33.007,52.3H21.153a1.185,1.185,0,0,1-1.185-1.185Zm8.3-16.6v16.6H25.894v-16.6ZM25.894,42.821h2.371v3.066L27.08,47.072l-1.185-1.185Zm4.742-4.742V23.854H44.861V38.08Zm16.6,4.742H49.6v3.066l-1.185,1.185-1.185-1.185ZM49.6,23.854v16.6H47.232v-16.6Zm-8.3,16.6h3.556v5.927a1.185,1.185,0,0,0,.347.838l2.371,2.371a1.185,1.185,0,0,0,1.676,0l2.371-2.371a1.185,1.185,0,0,0,.347-.838V40.45H55.53V51.119A1.185,1.185,0,0,1,54.345,52.3H42.49A1.185,1.185,0,0,1,41.3,51.119ZM30.636,14.371H44.861v2.371H30.636ZM27.08,19.113a2.361,2.361,0,0,1,1.185-2.04v.855a1.185,1.185,0,0,0,1.185,1.185h16.6a1.185,1.185,0,0,0,1.185-1.185v-.855a2.361,2.361,0,0,1,1.185,2.04v2.371H27.08ZM15.225,25.04a1.185,1.185,0,0,1,1.185-1.185h7.113V38.08H18.782a3.556,3.556,0,0,1-3.556-3.556ZM5.742,37.112l7.113-7.824v3.556L8.747,36.953A18.227,18.227,0,0,0,3.8,46.008a9.091,9.091,0,0,1,1.939-8.9Zm7.113-.914v12.55H5.8A15.86,15.86,0,0,1,10.423,38.63ZM9.3,53.49a3.563,3.563,0,0,1-3.354-2.371h6.91V53.49Zm49.788,3.556H16.411a1.185,1.185,0,0,1-1.185-1.185V39.234a5.873,5.873,0,0,0,2.371,1.1V51.119a3.556,3.556,0,0,0,3.556,3.556H33.007a3.556,3.556,0,0,0,3.556-3.556V40.45h2.371V51.119a3.556,3.556,0,0,0,3.556,3.556H54.345A3.556,3.556,0,0,0,57.9,51.119V40.332a5.873,5.873,0,0,0,2.371-1.1V55.861A1.185,1.185,0,0,1,59.086,57.047ZM66.2,53.49H62.643V51.119h6.91A3.563,3.563,0,0,1,66.2,53.49Zm5.5-7.482a18.227,18.227,0,0,0-4.944-9.054l-4.108-4.108V29.29l7.113,7.824A9.093,9.093,0,0,1,71.7,46Z" transform="translate(-0.999 -12)"/>
    </g>
  </g>
</svg>
